<svg width="74" height="39" viewBox="0 0 74 39" fill="none" xmlns="http://www.w3.org/2000/svg"><path d="M44.943 10.07v15.718c0 .417.166.817.462 1.112.296.295.697.46 1.115.46h3.154a4.743 4.743 0 0 1 3.345 1.38 4.713 4.713 0 0 1 1.385 3.335v.028a7.826 7.826 0 0 0-4.73-1.6h-7.88V10.07h3.149zM62.286 30.5a7.84 7.84 0 0 0-4.731 1.6V14.785a4.702 4.702 0 0 1 1.386-3.334 4.731 4.731 0 0 1 3.345-1.38h7.887V30.5h-7.887zm-7.885-4.673a7.8 7.8 0 0 0-4.73-1.612h-1.574V3.785h1.577a4.743 4.743 0 0 1 3.345 1.38 4.714 4.714 0 0 1 1.385 3.333l-.003 17.329zM46.52.64a1.58 1.58 0 0 0-1.456.97c-.08.19-.12.395-.12.601v4.715h-4.731a1.58 1.58 0 0 0-1.457.97c-.079.191-.12.396-.12.602v23.574a1.573 1.573 0 0 0 1.577 1.571h9.461a4.739 4.739 0 0 1 2.883.995 4.711 4.711 0 0 1 1.674 2.541 1.57 1.57 0 0 0 1.526 1.18h.45a1.578 1.578 0 0 0 1.526-1.18 4.713 4.713 0 0 1 1.673-2.54 4.74 4.74 0 0 1 2.881-.995h9.464a1.58 1.58 0 0 0 1.115-.461 1.57 1.57 0 0 0 .461-1.111V8.499a1.567 1.567 0 0 0-.972-1.452 1.58 1.58 0 0 0-.604-.12h-9.464a7.81 7.81 0 0 0-4.731 1.612v-.04a7.84 7.84 0 0 0-2.31-5.556A7.9 7.9 0 0 0 49.672.641H46.52zM26.26 23.446c-4.121 0-6.889-1.185-8.654-2.419-2.76 1.545-7.593 2.51-15.692-.267a1.752 1.752 0 0 1-.175-3.22 1.769 1.769 0 0 1 1.327-.101c5.57 1.91 9.468 1.896 11.938.949-1.308-2-1.611-4.271-.752-5.996.734-1.472 2.221-2.302 3.984-2.221 1.447.066 2.655.955 3.23 2.38.752 1.856.308 4.201-1.085 6.084 2.97 1.616 7.552 1.724 12.865.213a1.77 1.77 0 0 1 1.895.58 1.753 1.753 0 0 1-.301 2.493 1.766 1.766 0 0 1-.626.306c-3.087.872-5.72 1.219-7.953 1.219zm-8.272-9.774c-.442 0-.532.18-.581.28-.188.376-.194 1.232.376 2.239.046-.078.089-.156.13-.235.617-1.204.346-2.145.174-2.28h-.015l-.084-.004z" fill="#8E4AC9"/><path d="M29.247 15.258c-1.161 0-2.302-.154-3.275-.508a1.764 1.764 0 0 1-1.05-.9 1.75 1.75 0 0 1 .876-2.384 1.768 1.768 0 0 1 1.385-.012c1.41.514 4.23.31 5.8-.418a1.768 1.768 0 0 1 2.342.85 1.751 1.751 0 0 1-.854 2.335c-1.34.62-3.308 1.037-5.224 1.037zM27.09 32.053c-2.5 0-5.105-.468-7.853-1.393a1.764 1.764 0 0 1-1.193-1.549 1.753 1.753 0 0 1 .98-1.69 1.768 1.768 0 0 1 1.345-.089c4.759 1.609 8.792 1.62 12.69.037a1.768 1.768 0 0 1 2.298.964 1.751 1.751 0 0 1-.967 2.29 19.187 19.187 0 0 1-7.3 1.43z" fill="#8E4AC9"/></svg>