<svg width="211" height="72" viewBox="0 0 211 72" fill="none" xmlns="http://www.w3.org/2000/svg"><path d="M82.75 18.419v29.3a2.935 2.935 0 0 0 .855 2.073 2.919 2.919 0 0 0 2.067.857h5.853a8.749 8.749 0 0 1 6.202 2.575 8.79 8.79 0 0 1 2.568 6.217v.05a14.477 14.477 0 0 0-8.77-2.98H76.91V18.418h5.84zm32.153 38.092a14.474 14.474 0 0 0-8.77 2.98V27.21a8.806 8.806 0 0 1 2.567-6.217 8.775 8.775 0 0 1 6.203-2.574h14.622V56.51h-14.622zm-14.615-8.716a14.42 14.42 0 0 0-8.77-3.007h-2.915V6.695h2.922a8.749 8.749 0 0 1 6.202 2.574 8.79 8.79 0 0 1 2.568 6.217l-.007 32.309zM85.68.838a2.917 2.917 0 0 0-2.707 1.807 2.937 2.937 0 0 0-.223 1.123v8.791H74a2.913 2.913 0 0 0-2.7 1.808 2.935 2.935 0 0 0-.222 1.122V59.44a2.935 2.935 0 0 0 .855 2.072A2.919 2.919 0 0 0 74 62.37h17.525a8.754 8.754 0 0 1 5.344 1.855 8.791 8.791 0 0 1 3.103 4.739 2.915 2.915 0 0 0 2.828 2.198h.835c.648 0 1.277-.216 1.789-.614a2.93 2.93 0 0 0 1.039-1.584 8.782 8.782 0 0 1 3.103-4.74 8.752 8.752 0 0 1 5.344-1.854h17.538a2.911 2.911 0 0 0 2.067-.857 2.937 2.937 0 0 0 .855-2.072V15.489c0-.777-.308-1.522-.856-2.072a2.918 2.918 0 0 0-2.066-.858H114.91a14.416 14.416 0 0 0-8.77 3.008v-.076c0-3.885-1.54-7.612-4.28-10.36A14.601 14.601 0 0 0 91.525.838H85.68zM48.125 43.36c-7.64 0-12.77-2.209-16.042-4.512-5.118 2.88-14.073 4.679-29.088-.501a3.27 3.27 0 0 1-1.873-1.661 3.283 3.283 0 0 1 1.504-4.38 3.26 3.26 0 0 1 2.496-.154c10.323 3.561 17.55 3.536 22.125 1.77-2.422-3.73-2.985-7.965-1.387-11.188 1.363-2.757 4.117-4.293 7.385-4.143 2.685.126 4.922 1.785 6 4.439 1.39 3.46.573 7.834-2 11.345 5.5 3.007 14 3.213 23.848.396A3.263 3.263 0 0 1 65.204 37a3.285 3.285 0 0 1-1.156 3.5 3.265 3.265 0 0 1-1.163.569c-5.74 1.641-10.62 2.29-14.76 2.29zM32.79 25.136c-.82 0-.985.336-1.078.52-.342.69-.357 2.295.695 4.174.086-.145.166-.293.25-.438 1.146-2.256.643-3.998.323-4.26h-.025l-.165.004z" fill="#8E4AC9"/><path d="M53.66 28.092c-2.15 0-4.265-.288-6.067-.947a3.267 3.267 0 0 1-1.84-1.699 3.285 3.285 0 0 1 .56-3.597 3.268 3.268 0 0 1 3.53-.857c2.614.958 7.84.58 10.75-.78a3.26 3.26 0 0 1 4.456 1.535 3.282 3.282 0 0 1-1.707 4.403c-2.482 1.16-6.13 1.942-9.682 1.942zm-3.997 31.311c-4.633 0-9.463-.867-14.555-2.599a3.27 3.27 0 0 1-1.828-1.66 3.283 3.283 0 0 1 1.466-4.338 3.26 3.26 0 0 1 2.459-.204c8.823 3.007 16.297 3.007 23.53.067a3.263 3.263 0 0 1 4.259 1.798 3.28 3.28 0 0 1-1.794 4.27 35.425 35.425 0 0 1-13.538 2.666zm94.239-40.696h-.602a.435.435 0 0 1-.418-.441v-2.068a.428.428 0 0 1 .253-.408.422.422 0 0 1 .165-.035h.602v-2.58a.457.457 0 0 1 .44-.44h2.48a.435.435 0 0 1 .418.44v2.58h1.715a.427.427 0 0 1 .442.443v2.068a.447.447 0 0 1-.129.313.436.436 0 0 1-.313.128h-1.705v2.904c0 .502.347.56.627.56.306-.024.609-.078.903-.164a.405.405 0 0 1 .5.303l.5 1.928a.459.459 0 0 1-.3.536s-1.648.501-2.805.501c-1.75 0-2.783-1.117-2.783-3.23l.01-3.338zm7.598-9.481a.459.459 0 0 1 .44-.444h2.572a.46.46 0 0 1 .44.444v6.832a4.926 4.926 0 0 1 2.158-.534c2.92 0 4.428 2.3 4.428 4.88v4.202a.457.457 0 0 1-.44.441h-2.458a.442.442 0 0 1-.443-.441v-4.26c0-1.023-.669-1.837-1.689-1.837-.75 0-1.556.418-1.556 1.837v4.26c0 .3-.115.441-.5.441h-2.5a.453.453 0 0 1-.452-.441V9.226zm16.398 6.298a4.324 4.324 0 0 1 4.075 2.681c.221.535.333 1.109.33 1.687a6.07 6.07 0 0 1-.048.63.447.447 0 0 1-.44.393h-5.565a1.72 1.72 0 0 0 1.785 1.534 3.018 3.018 0 0 0 1.623-.557.394.394 0 0 1 .29-.123.404.404 0 0 1 .29.123l1.16 1.393a.505.505 0 0 1-.023.674 4.708 4.708 0 0 1-3.432 1.326 4.869 4.869 0 0 1-3.454-1.415 4.891 4.891 0 0 1-.032-6.911 4.87 4.87 0 0 1 3.441-1.447v.012zm1.135 3.569A1.249 1.249 0 0 0 167.805 18a1.292 1.292 0 0 0-1.25 1.093h2.478zm-25.5 15.695a.442.442 0 0 1 .44-.441h1.09a.418.418 0 0 1 .414.279l.418 1.022c.465-.674 1.323-1.534 2.528-1.534 1.275 0 2.179.466 1.854 1.003l-1.134 1.86a.395.395 0 0 1-.5.207 1.718 1.718 0 0 0-.558-.115c-.695 0-1.228.534-1.228 1.326V43.2c0 .281-.14.441-.5.441h-2.365a.451.451 0 0 1-.439-.44l-.02-8.414zm12.007-.674a4.323 4.323 0 0 1 3.12 1.257 4.355 4.355 0 0 1 1.238 3.74.45.45 0 0 1-.44.396h-5.563a1.72 1.72 0 0 0 1.785 1.534 3.017 3.017 0 0 0 1.623-.559.392.392 0 0 1 .29-.123.402.402 0 0 1 .29.123l1.157 1.396a.5.5 0 0 1-.022.674 4.729 4.729 0 0 1-3.43 1.323 4.863 4.863 0 0 1-3.381-1.45 4.885 4.885 0 0 1-1.405-3.407 4.887 4.887 0 0 1 1.371-3.42 4.867 4.867 0 0 1 3.367-1.484zm1.135 3.579a1.25 1.25 0 0 0-1.227-1.09 1.294 1.294 0 0 0-1.25 1.09h2.477zm7.72 0a4.32 4.32 0 0 1 1.785.373c0-.907-.138-1.37-1.25-1.37a9.848 9.848 0 0 0-2.32.348c-.348.115-.5-.14-.555-.489l-.21-1.463a.51.51 0 0 1 .041-.389.49.49 0 0 1 .306-.24 16.41 16.41 0 0 1 3.085-.349c2.875 0 3.918 1.21 3.918 3.952v5.135a.455.455 0 0 1-.445.452h-1.02a.426.426 0 0 1-.418-.301l-.325-.627a3.867 3.867 0 0 1-2.805 1.16c-1.832 0-3.2-1.23-3.2-3.067.018-1.8 1.303-3.125 3.413-3.125zm.605 3.904a.998.998 0 0 0 1-1.002 1.002 1.002 0 0 0-1-1.002.981.981 0 0 0-1 .974.991.991 0 0 0 .283.727 1 1 0 0 0 .717.303zm10.5-7.483c.666.009 1.322.16 1.925.444v-6.742a.456.456 0 0 1 .44-.44h2.573a.457.457 0 0 1 .442.44v15.385a.456.456 0 0 1-.442.441h-1.088c-.232 0-.395-.208-.487-.463l-.278-.767a4.013 4.013 0 0 1-3.107 1.463c-2.62 0-4.59-2.208-4.59-4.879 0-3.278 2.132-4.882 4.612-4.882zm.44 6.767a1.842 1.842 0 0 0 1.855-1.905 1.837 1.837 0 0 0-.531-1.327 1.808 1.808 0 0 0-1.324-.533 1.833 1.833 0 0 0-1.877 1.86 1.872 1.872 0 0 0 .538 1.348 1.86 1.86 0 0 0 1.339.554v.003zm7.31-11.183a1.845 1.845 0 0 1 1.832-1.857 1.848 1.848 0 1 1-.702 3.557 1.818 1.818 0 0 1-.993-.995 1.83 1.83 0 0 1-.137-.705zm.14 5.09a.44.44 0 0 1 .44-.44h2.55a.438.438 0 0 1 .44.44v8.413a.456.456 0 0 1-.44.441h-2.55a.454.454 0 0 1-.44-.44v-8.414zm5.928 0a.442.442 0 0 1 .44-.441h1.09a.51.51 0 0 1 .417.278l.37.93a4.37 4.37 0 0 1 3.27-1.44c2.875 0 4.405 2.207 4.405 4.858v4.228a.456.456 0 0 1-.44.441h-2.483a.441.441 0 0 1-.44-.44v-4.346c0-.93-.532-1.755-1.577-1.755-.925 0-1.75.675-1.75 1.627v4.46a.399.399 0 0 1-.105.32.386.386 0 0 1-.313.122h-2.452a.454.454 0 0 1-.44-.441l.008-8.4zm13.097 5.464s-.665-.7-.665-2.113a4.104 4.104 0 0 1 1.222-2.847 4.087 4.087 0 0 1 2.861-1.175h4.379a.433.433 0 0 1 .316.126.413.413 0 0 1 .095.146.404.404 0 0 1 .029.171v.953a.461.461 0 0 1-.25.393l-1.357.479s.883.721.883 2.255c0 1.697-1.553 3.509-4 3.509h-1.678c-.5 0-.765.25-.765.626 0 .444.395.63.75.63H207c2.178 0 4 1.322 4 3.392 0 2.23-1.555 4.043-5.217 4.043-3.593 0-4.845-1.697-4.845-3.16 0-1.394 1.16-2.093 1.412-2.23v-.071a2.681 2.681 0 0 1-1.785-2.579c-.005-1.83 1.85-2.548 1.85-2.548zm3.362 7.876c1.16 0 1.67-.463 1.67-1.092 0-.487-.417-.975-1.67-.975-.835 0-1.67.303-1.67.975 0 .671.558 1.092 1.67 1.092zm.14-8.576a1.205 1.205 0 0 0 1.205-1.208 1.208 1.208 0 0 0-1.205-1.208 1.206 1.206 0 0 0-1.113 1.67 1.21 1.21 0 0 0 1.113.746zm-62.384 13.829a.442.442 0 0 1 .44-.441h1.09a.412.412 0 0 1 .414.278l.418 1.023c.465-.674 1.323-1.534 2.528-1.534 1.275 0 2.179.464 1.854 1.002l-1.134 1.86a.398.398 0 0 1-.5.208 1.718 1.718 0 0 0-.558-.115c-.695 0-1.228.534-1.228 1.323v4.812c0 .278-.14.44-.5.44h-2.365a.452.452 0 0 1-.439-.44l-.02-8.416zm7.787 0a.44.44 0 0 1 .44-.441h2.49a.438.438 0 0 1 .44.441v4.306c0 .954.533 1.791 1.483 1.791.905 0 1.392-.862 1.392-1.651V53.38c0-.37.25-.441.488-.441h2.362a.44.44 0 0 1 .442.441v8.413a.457.457 0 0 1-.442.441h-1.088a.497.497 0 0 1-.442-.326l-.347-.86c-.603.582-1.345 1.42-3.13 1.42-2.75 0-4.081-2.231-4.081-4.883l-.007-4.205zm11.545 7.832l.813-1.604a.398.398 0 0 1 .487-.186s1.088.604 2.085.604a.405.405 0 0 0 .409-.25.4.4 0 0 0 .031-.168c0-.23-.137-.556-1.32-.975-1.81-.63-2.597-1.674-2.597-3.115 0-1.556 1.112-2.812 3.617-2.812 1.46 0 2.573.396 3.083.72.21.14.372.35.232.58l-.857 1.582a.412.412 0 0 1-.488.14s-1.065-.536-1.97-.536c-.302 0-.5.07-.5.326s.25.466 1.043.752c1.877.649 3.177 1.393 3.177 3.258 0 1.626-1.3 2.952-3.92 2.952-1.53 0-2.687-.396-3.152-.767-.173-.153-.288-.29-.173-.501zm9.088-14.803a.457.457 0 0 1 .442-.442h2.573a.457.457 0 0 1 .44.441v6.832a4.918 4.918 0 0 1 2.157-.534c2.92 0 4.428 2.3 4.428 4.88v4.207a.457.457 0 0 1-.44.441h-2.46a.442.442 0 0 1-.44-.441v-4.26c0-1.023-.673-1.837-1.693-1.837-.75 0-1.552.418-1.552 1.837v4.26c0 .3-.115.441-.5.441h-2.5a.456.456 0 0 1-.443-.441l-.012-15.385z" fill="#8E4AC9"/></svg>