<svg width="74" height="39" viewBox="0 0 74 39" fill="none" xmlns="http://www.w3.org/2000/svg">
<path d="M44.943 10.0704V25.7882C44.943 26.2052 45.1092 26.605 45.405 26.8998C45.7008 27.1947 46.102 27.3603 46.5203 27.3603H49.674C50.2952 27.3602 50.9104 27.482 51.4843 27.7189C52.0582 27.9558 52.5797 28.303 53.019 28.7408C53.4582 29.1786 53.8066 29.6983 54.0443 30.2704C54.282 30.8424 54.4042 31.4555 54.4041 32.0746V32.1027C53.0456 31.0679 51.3839 30.5061 49.674 30.5035H41.794V10.0704H44.943ZM62.286 30.5006C60.576 30.504 58.9142 31.0657 57.555 32.0999V14.7847C57.555 14.1656 57.6774 13.5525 57.9151 12.9804C58.1529 12.4084 58.5014 11.8887 58.9407 11.4509C59.38 11.0131 59.9016 10.6659 60.4756 10.429C61.0496 10.1921 61.6648 10.0703 62.286 10.0704H70.1726V30.5016H62.286V30.5006ZM54.4013 25.8266C53.0453 24.7857 51.3828 24.2194 49.6712 24.2152H48.0967V3.78405H49.674C50.2952 3.78393 50.9104 3.90579 51.4843 4.14266C52.0582 4.37953 52.5797 4.72678 53.019 5.16457C53.4582 5.60236 53.8066 6.12211 54.0443 6.69413C54.282 7.26615 54.4042 7.87923 54.4041 8.49836L54.4013 25.8266ZM46.5194 0.640869C46.3123 0.640746 46.1073 0.6813 45.916 0.760213C45.7247 0.839125 45.5509 0.954849 45.4044 1.10077C45.258 1.24668 45.1419 1.41993 45.0628 1.6106C44.9836 1.80128 44.9429 2.00564 44.943 2.21199V6.92724H40.212C40.0049 6.92711 39.7998 6.9677 39.6084 7.04667C39.417 7.12564 39.2431 7.24145 39.0967 7.38747C38.9503 7.53348 38.8342 7.70684 38.7551 7.89762C38.676 8.0884 38.6354 8.29286 38.6356 8.4993V32.0727C38.6356 32.4895 38.8017 32.8892 39.0973 33.184C39.3929 33.4788 39.7938 33.6445 40.212 33.6448H49.6731C50.7179 33.6495 51.7317 33.999 52.5562 34.6386C53.3807 35.2783 53.9693 36.1721 54.2302 37.1805C54.3174 37.5178 54.5145 37.8166 54.7907 38.0299C55.0669 38.2433 55.4064 38.3591 55.7558 38.3591H56.2061C56.5556 38.3592 56.8951 38.2435 57.1714 38.0301C57.4476 37.8167 57.6447 37.5178 57.7317 37.1805C57.9928 36.1728 58.5811 35.2794 59.4049 34.6399C60.2287 34.0003 61.2417 33.6504 62.286 33.6448H71.7499C72.1681 33.6445 72.569 33.4788 72.8646 33.184C73.1602 32.8892 73.3263 32.4895 73.3263 32.0727V8.4993C73.3265 8.29286 73.2859 8.0884 73.2068 7.89762C73.1277 7.70684 73.0116 7.53348 72.8652 7.38747C72.7188 7.24145 72.5449 7.12564 72.3535 7.04667C72.1622 6.9677 71.957 6.92711 71.7499 6.92724H62.286C60.5742 6.93197 58.9116 7.49826 57.555 8.53865V8.4993C57.5547 6.41535 56.7241 4.41682 55.2457 2.94315C53.7672 1.46949 51.7621 0.641366 49.6712 0.640869H46.5194Z" fill="#8E4AC9"/>
<path d="M26.2605 23.446C22.1386 23.446 19.3712 22.2609 17.6059 21.027C14.8451 22.5719 10.0135 23.5369 1.91353 20.76C1.48171 20.6001 1.12985 20.278 0.93322 19.8628C0.73659 19.4475 0.710805 18.9721 0.861379 18.5382C1.01195 18.1042 1.32693 17.7463 1.73893 17.5408C2.15093 17.3354 2.62724 17.2988 3.06597 17.4389C8.63547 19.3491 12.5336 19.3351 15.004 18.3879C13.6964 16.3877 13.3928 14.1167 14.252 12.392C14.9861 10.9201 16.4732 10.0901 18.2357 10.1707C19.6833 10.2372 20.8912 11.1263 21.4665 12.5512C22.2185 14.4072 21.7739 16.7521 20.3808 18.6352C23.3512 20.2513 27.9327 20.3591 33.2456 18.8479C33.4699 18.779 33.7057 18.7554 33.9392 18.7785C34.1728 18.8016 34.3993 18.8709 34.6056 18.9823C34.8119 19.0938 34.9939 19.2452 35.1407 19.4277C35.2876 19.6101 35.3964 19.8199 35.4608 20.0449C35.5253 20.2698 35.544 20.5052 35.516 20.7374C35.4879 20.9697 35.4137 21.194 35.2975 21.3972C35.1814 21.6005 35.0257 21.7786 34.8396 21.9211C34.6535 22.0636 34.4408 22.1677 34.2138 22.2272C31.1268 23.0994 28.4939 23.446 26.2605 23.446ZM17.9885 13.6717C17.5457 13.6717 17.4564 13.8516 17.4066 13.9528C17.2186 14.3275 17.213 15.1838 17.7826 16.1909C17.8287 16.1132 17.8719 16.0345 17.9123 15.9558C18.5299 14.7519 18.2592 13.8113 18.0872 13.6764H18.0721L17.9885 13.6717Z" fill="#8E4AC9"/>
<path d="M29.2469 15.2579C28.086 15.2579 26.9448 15.1043 25.9719 14.7501C25.7451 14.6785 25.5351 14.5617 25.3547 14.407C25.1743 14.2523 25.0273 14.0628 24.9224 13.8498C24.8175 13.6369 24.7569 13.4051 24.7444 13.1682C24.7318 12.9313 24.7676 12.6944 24.8494 12.4717C24.9312 12.2489 25.0574 12.045 25.2205 11.8722C25.3835 11.6994 25.5799 11.5613 25.798 11.4663C26.016 11.3712 26.2511 11.3211 26.4891 11.319C26.727 11.317 26.963 11.363 27.1826 11.4542C28.5926 11.9676 31.4126 11.7643 32.9824 11.0355C33.4062 10.8387 33.8911 10.8177 34.3304 10.9773C34.7697 11.1368 35.1275 11.4637 35.3249 11.8861C35.5224 12.3085 35.5434 12.7918 35.3833 13.2296C35.2232 13.6675 34.8952 14.024 34.4714 14.2208C33.1309 14.8401 31.1626 15.2579 29.2469 15.2579Z" fill="#8E4AC9"/>
<path d="M27.0896 32.0529C24.5901 32.0529 21.9854 31.5845 19.2368 30.6598C19.0176 30.5857 18.8152 30.4693 18.6411 30.3172C18.467 30.1651 18.3247 29.9803 18.2222 29.7734C18.1198 29.5664 18.0593 29.3414 18.0441 29.1112C18.0289 28.881 18.0594 28.65 18.1337 28.4315C18.2081 28.213 18.3249 28.0112 18.4775 27.8377C18.6302 27.6642 18.8156 27.5224 19.0232 27.4203C19.2308 27.3182 19.4565 27.2579 19.6875 27.2427C19.9186 27.2276 20.1503 27.258 20.3695 27.3321C25.1278 28.9407 29.1613 28.9519 33.0595 27.3686C33.4924 27.1928 33.9777 27.1956 34.4085 27.3764C34.8394 27.5572 35.1805 27.9012 35.3569 28.3327C35.5333 28.7641 35.5304 29.2478 35.349 29.6772C35.1676 30.1066 34.8225 30.4466 34.3896 30.6223C32.0736 31.5707 29.5934 32.0567 27.0896 32.0529Z" fill="#8E4AC9"/>
</svg>
