<svg width="211" height="72" viewBox="0 0 211 72" fill="none" xmlns="http://www.w3.org/2000/svg">
<path d="M82.75 18.4185V47.7198C82.7497 48.1046 82.8251 48.4857 82.9718 48.8413C83.1186 49.1969 83.3338 49.52 83.6053 49.7921C83.8767 50.0642 84.199 50.28 84.5537 50.4271C84.9085 50.5742 85.2886 50.6497 85.6725 50.6494H91.525C92.6768 50.6491 93.8174 50.8762 94.8815 51.3179C95.9457 51.7596 96.9126 52.4072 97.7271 53.2236C98.5415 54.04 99.1875 55.0093 99.6281 56.0761C100.069 57.1428 100.295 58.2862 100.295 59.4408V59.4909C97.7751 57.5635 94.6947 56.5168 91.525 56.5112H76.91V18.4185H82.75ZM114.903 56.5112C111.733 56.5168 108.652 57.5635 106.133 59.4909V27.2099C106.132 26.0553 106.359 24.912 106.799 23.8452C107.24 22.7784 107.886 21.8091 108.7 20.9927C109.515 20.1763 110.482 19.5287 111.546 19.0871C112.61 18.6454 113.751 18.4182 114.903 18.4185H129.525V56.5112H114.903ZM100.288 47.795C97.7733 45.8537 94.6911 44.7968 91.5175 44.7876H88.6025V6.69501H91.525C92.6768 6.69468 93.8174 6.92185 94.8815 7.36354C95.9457 7.80523 96.9126 8.45279 97.7271 9.26921C98.5415 10.0856 99.1875 11.0549 99.6281 12.1217C100.069 13.1885 100.295 14.3318 100.295 15.4864L100.288 47.795ZM85.68 0.838266C85.2956 0.837278 84.9148 0.912323 84.5593 1.05911C84.2039 1.20589 83.8808 1.42153 83.6086 1.69367C83.3365 1.96581 83.1205 2.2891 82.9732 2.64503C82.8259 3.00096 82.75 3.38253 82.75 3.76789V12.5593H74C73.6161 12.5589 73.236 12.6345 72.8812 12.7816C72.5265 12.9287 72.2042 13.1445 71.9328 13.4166C71.6613 13.6887 71.4461 14.0118 71.2993 14.3674C71.1526 14.723 71.0772 15.1041 71.0775 15.4889V59.4408C71.0772 59.8256 71.1526 60.2067 71.2993 60.5623C71.4461 60.9179 71.6613 61.241 71.9328 61.5131C72.2042 61.7852 72.5265 62.001 72.8812 62.1481C73.236 62.2952 73.6161 62.3707 74 62.3704H91.525C93.4619 62.3797 95.3411 63.0317 96.8693 64.2245C98.3975 65.4174 99.4887 67.0839 99.9725 68.9639C100.134 69.5928 100.499 70.1499 101.011 70.5478C101.523 70.9457 102.152 71.1617 102.8 71.1618H103.635C104.283 71.1617 104.912 70.9457 105.424 70.5478C105.936 70.1499 106.301 69.5928 106.463 68.9639C106.946 67.0839 108.037 65.4174 109.566 64.2245C111.094 63.0317 112.973 62.3797 114.91 62.3704H132.448C132.831 62.3707 133.212 62.2952 133.566 62.1481C133.921 62.001 134.243 61.7852 134.515 61.5131C134.786 61.241 135.001 60.9179 135.148 60.5623C135.295 60.2067 135.37 59.8256 135.37 59.4408V15.4889C135.37 14.7119 135.062 13.9667 134.514 13.4173C133.966 12.8679 133.223 12.5593 132.448 12.5593H114.91C111.736 12.5684 108.654 13.6253 106.14 15.5666V15.4914C106.14 11.6056 104.6 7.87888 101.86 5.13095C99.1188 2.38303 95.4014 0.838931 91.525 0.838266H85.68Z" fill="#8E4AC9"/>
<path d="M48.125 43.3591C40.485 43.3591 35.355 41.1513 32.0825 38.8482C26.965 41.7277 18.01 43.527 2.995 38.3469C2.17548 38.0641 1.5016 37.4666 1.1216 36.6857C0.741609 35.9048 0.686625 35.0046 0.968749 34.1831C1.25087 33.3615 1.84699 32.686 2.62597 32.3051C3.40495 31.9242 4.30298 31.8691 5.1225 32.1519C15.445 35.713 22.6725 35.688 27.2475 33.9212C24.825 30.1921 24.2625 25.9568 25.86 22.734C27.2225 19.9773 29.9775 18.441 33.245 18.5914C35.93 18.7167 38.1675 20.3757 39.245 23.0297C40.635 26.4906 39.8175 30.8637 37.245 34.3748C42.745 37.3821 51.245 37.5876 61.0925 34.7707C61.5084 34.6412 61.9459 34.5963 62.3794 34.6386C62.8129 34.681 63.2335 34.8098 63.6166 35.0175C63.9997 35.2252 64.3375 35.5076 64.6102 35.848C64.8828 36.1885 65.0849 36.5801 65.2044 36.9999C65.3238 37.4198 65.3584 37.8593 65.306 38.2927C65.2536 38.7262 65.1153 39.1447 64.8992 39.5238C64.6831 39.9028 64.3936 40.2348 64.0477 40.5C63.7018 40.7653 63.3065 40.9586 62.885 41.0686C57.145 42.7101 52.265 43.3591 48.125 43.3591ZM32.79 25.1373C31.97 25.1373 31.805 25.4731 31.7125 25.6561C31.37 26.3478 31.355 27.9517 32.4075 29.8312C32.4925 29.6859 32.5725 29.538 32.6575 29.3927C33.8025 27.1372 33.3 25.3954 32.98 25.1323C32.98 25.1323 32.98 25.1323 32.955 25.1323L32.79 25.1373Z" fill="#8E4AC9"/>
<path d="M53.66 28.092C51.51 28.092 49.395 27.8038 47.5925 27.1447C47.1895 26.9966 46.8196 26.7704 46.5038 26.479C46.188 26.1876 45.9326 25.8367 45.7521 25.4463C45.5716 25.0559 45.4696 24.6337 45.4518 24.2038C45.4341 23.7739 45.501 23.3447 45.6487 22.9408C45.7965 22.5368 46.0222 22.1659 46.3129 21.8494C46.6036 21.5328 46.9536 21.2768 47.3431 21.0958C47.7325 20.9149 48.1536 20.8126 48.5825 20.7949C49.0114 20.7771 49.4395 20.8442 49.8425 20.9923C52.4575 21.9496 57.6825 21.5712 60.5925 20.2129C60.9839 20.0113 61.4119 19.8911 61.8508 19.8594C62.2897 19.8277 62.7305 19.8852 63.1467 20.0285C63.5629 20.1718 63.9459 20.3978 64.2729 20.6931C64.5998 20.9884 64.8638 21.3469 65.0491 21.747C65.2344 22.1471 65.3372 22.5806 65.3513 23.0215C65.3654 23.4623 65.2905 23.9016 65.1312 24.3127C64.9718 24.7239 64.7312 25.0986 64.4239 25.4142C64.1165 25.7299 63.7487 25.9801 63.3425 26.1498C60.86 27.3101 57.2125 28.092 53.66 28.092Z" fill="#8E4AC9"/>
<path d="M49.6625 59.403C45.03 59.403 40.2 58.5359 35.1075 56.8042C34.3052 56.5113 33.6491 55.9151 33.2798 55.1434C32.9104 54.3717 32.8571 53.4856 33.1312 52.675C33.4054 51.8643 33.9852 51.1935 34.7465 50.806C35.5079 50.4185 36.3903 50.3451 37.205 50.6016C46.0275 53.609 53.5025 53.609 60.735 50.6693C61.1324 50.5071 61.5578 50.4249 61.9869 50.4274C62.416 50.43 62.8404 50.5172 63.2358 50.6842C63.6313 50.8512 63.9901 51.0946 64.2917 51.4006C64.5933 51.7065 64.8319 52.069 64.9937 52.4674C65.1556 52.8658 65.2376 53.2922 65.235 53.7224C65.2325 54.1525 65.1454 54.578 64.9789 54.9744C64.8123 55.3708 64.5695 55.7305 64.2642 56.0328C63.959 56.3352 63.5974 56.5743 63.2 56.7366C58.9048 58.5043 54.3055 59.4102 49.6625 59.403V59.403Z" fill="#8E4AC9"/>
<path d="M143.902 18.7068H143.3C143.187 18.7022 143.08 18.6536 143.002 18.5712C142.924 18.4888 142.881 18.3792 142.882 18.2657V16.1982C142.88 16.1413 142.889 16.0845 142.908 16.0311C142.928 15.9777 142.958 15.9288 142.997 15.8874C143.036 15.846 143.083 15.8129 143.135 15.7901C143.187 15.7673 143.243 15.7552 143.3 15.7546H143.902V13.1758C143.906 13.06 143.954 12.95 144.036 12.8681C144.117 12.7862 144.227 12.7385 144.342 12.7347H146.822C146.936 12.7393 147.043 12.7879 147.121 12.8703C147.199 12.9527 147.241 13.0623 147.24 13.1758V15.7546H148.955C149.014 15.7525 149.072 15.7625 149.127 15.7841C149.181 15.8056 149.231 15.8382 149.273 15.8798C149.314 15.9214 149.347 15.9712 149.368 16.026C149.39 16.0807 149.4 16.1393 149.397 16.1982V18.2657C149.397 18.3238 149.386 18.3814 149.364 18.4351C149.341 18.4887 149.309 18.5375 149.268 18.5785C149.227 18.6195 149.178 18.6519 149.124 18.6739C149.07 18.6959 149.013 18.7071 148.955 18.7068H147.25V21.6113C147.25 22.1125 147.597 22.1702 147.877 22.1702C148.183 22.1473 148.486 22.0927 148.78 22.0073C148.833 21.9931 148.888 21.9898 148.942 21.9975C148.996 22.0052 149.048 22.0238 149.094 22.0521C149.141 22.0804 149.182 22.1179 149.214 22.1623C149.245 22.2067 149.268 22.2571 149.28 22.3105L149.78 24.2377C149.805 24.3484 149.788 24.4644 149.732 24.5633C149.677 24.6622 149.587 24.7373 149.48 24.774C149.48 24.774 147.832 25.2752 146.675 25.2752C144.925 25.2752 143.892 24.1575 143.892 22.0449L143.902 18.7068Z" fill="#8E4AC9"/>
<path d="M151.5 9.22605C151.504 9.11001 151.551 8.99971 151.633 8.91739C151.715 8.83507 151.824 8.78685 151.94 8.78247H154.512C154.628 8.78685 154.738 8.83507 154.82 8.91739C154.901 8.99971 154.949 9.11001 154.952 9.22605V16.0577C155.622 15.7175 156.36 15.5349 157.11 15.5239C160.03 15.5239 161.538 17.8245 161.538 20.4032V24.6059C161.533 24.7215 161.485 24.8312 161.404 24.913C161.322 24.9948 161.213 25.0427 161.098 25.047H158.64C158.523 25.047 158.411 25.0006 158.328 24.918C158.245 24.8353 158.198 24.7232 158.197 24.6059V20.3456C158.197 19.3231 157.528 18.5086 156.508 18.5086C155.758 18.5086 154.952 18.9271 154.952 20.3456V24.6059C154.952 24.9067 154.837 25.047 154.452 25.047H151.952C151.835 25.0464 151.722 25.0002 151.638 24.9179C151.553 24.8357 151.504 24.7239 151.5 24.6059V9.22605Z" fill="#8E4AC9"/>
<path d="M167.898 15.524C168.475 15.5143 169.048 15.6203 169.584 15.8358C170.119 16.0513 170.607 16.3719 171.017 16.7788C171.427 17.1858 171.752 17.6708 171.973 18.2054C172.194 18.7401 172.306 19.3135 172.303 19.8921C172.298 20.1025 172.282 20.3125 172.255 20.5212C172.242 20.6291 172.19 20.7284 172.109 20.8008C172.028 20.8732 171.923 20.9136 171.815 20.9146H166.25C166.298 21.3496 166.509 21.7501 166.84 22.0349C167.172 22.3197 167.599 22.4675 168.035 22.4483C168.618 22.4239 169.182 22.2307 169.658 21.892C169.695 21.8532 169.74 21.8224 169.79 21.8013C169.84 21.7803 169.893 21.7694 169.948 21.7694C170.002 21.7694 170.055 21.7803 170.105 21.8013C170.155 21.8224 170.2 21.8532 170.238 21.892L171.398 23.2854C171.478 23.3804 171.52 23.5021 171.516 23.6268C171.512 23.7515 171.462 23.8701 171.375 23.9595C170.921 24.3998 170.383 24.744 169.793 24.9718C169.203 25.1995 168.574 25.3061 167.943 25.2852C166.65 25.2912 165.407 24.7821 164.489 23.8699C163.57 22.9576 163.051 21.717 163.045 20.4209C163.039 19.1248 163.547 17.8795 164.457 16.9588C165.367 16.0381 166.605 15.5175 167.898 15.5115V15.524ZM169.033 19.0927C168.994 18.7927 168.848 18.5169 168.623 18.3161C168.397 18.1152 168.107 18.003 167.805 18C167.502 18.0063 167.211 18.1191 166.982 18.3189C166.754 18.5186 166.602 18.7925 166.555 19.0927H169.033Z" fill="#8E4AC9"/>
<path d="M143.533 34.7884C143.533 34.6714 143.579 34.5592 143.661 34.4765C143.744 34.3938 143.856 34.3473 143.973 34.3473H145.063C145.152 34.3427 145.241 34.3673 145.316 34.4174C145.391 34.4675 145.447 34.5405 145.477 34.6255L145.895 35.648C146.36 34.9738 147.218 34.1143 148.423 34.1143C149.698 34.1143 150.602 34.5804 150.277 35.1167L149.143 36.9762C149.102 37.0686 149.027 37.1417 148.934 37.1805C148.841 37.2192 148.737 37.2205 148.643 37.1842C148.464 37.1149 148.276 37.0759 148.085 37.0689C147.39 37.0689 146.857 37.6027 146.857 38.3947V43.2014C146.857 43.482 146.717 43.6424 146.357 43.6424H143.992C143.877 43.6387 143.767 43.591 143.686 43.5091C143.604 43.4272 143.556 43.3171 143.553 43.2014L143.533 34.7884Z" fill="#8E4AC9"/>
<path d="M155.54 34.1141C156.117 34.1047 156.691 34.2111 157.226 34.4268C157.762 34.6426 158.249 34.9635 158.66 35.3706C159.07 35.7777 159.395 36.2629 159.616 36.7976C159.836 37.3324 159.948 37.906 159.945 38.4847C159.942 38.6943 159.926 38.9035 159.898 39.1112C159.885 39.2196 159.833 39.3196 159.752 39.3925C159.671 39.4653 159.566 39.5061 159.458 39.5072H153.895C153.943 39.9422 154.154 40.3427 154.485 40.6275C154.817 40.9123 155.244 41.0601 155.68 41.0409C156.263 41.0159 156.827 40.8218 157.303 40.4821C157.34 40.4433 157.385 40.4124 157.435 40.3914C157.485 40.3703 157.538 40.3595 157.593 40.3595C157.647 40.3595 157.7 40.3703 157.75 40.3914C157.8 40.4124 157.845 40.4433 157.883 40.4821L159.04 41.878C159.121 41.973 159.163 42.0947 159.159 42.2194C159.155 42.3441 159.104 42.4627 159.018 42.5521C158.563 42.9913 158.025 43.3347 157.436 43.5619C156.847 43.7892 156.218 43.8958 155.588 43.8753C154.315 43.8533 153.101 43.3326 152.207 42.4248C151.312 41.5169 150.808 40.294 150.802 39.018C150.795 37.742 151.288 36.5142 152.173 35.5976C153.059 34.6811 154.268 34.1485 155.54 34.1141V34.1141ZM156.675 37.6928C156.636 37.3933 156.49 37.118 156.265 36.9177C156.039 36.7174 155.749 36.6055 155.448 36.6026C155.145 36.6088 154.854 36.7213 154.625 36.9205C154.397 37.1198 154.245 37.3931 154.198 37.6928H156.675Z" fill="#8E4AC9"/>
<path d="M164.395 37.693C165.01 37.689 165.618 37.8163 166.18 38.0664C166.18 37.1592 166.042 36.6955 164.93 36.6955C164.146 36.7187 163.367 36.8357 162.61 37.0439C162.262 37.1592 162.11 36.9035 162.055 36.5552L161.845 35.0916C161.826 35.0275 161.819 34.9601 161.826 34.8934C161.833 34.8267 161.854 34.7621 161.886 34.7035C161.918 34.6448 161.962 34.5933 162.015 34.5519C162.068 34.5105 162.128 34.4802 162.192 34.4626C163.208 34.2492 164.24 34.1326 165.277 34.1143C168.152 34.1143 169.195 35.3247 169.195 38.0664V43.2014C169.194 43.3197 169.147 43.433 169.064 43.5172C168.98 43.6013 168.868 43.6499 168.75 43.6525H167.73C167.637 43.6545 167.546 43.6263 167.471 43.572C167.396 43.5178 167.34 43.4405 167.312 43.3517L166.987 42.7252C166.622 43.0976 166.185 43.3923 165.703 43.5916C165.221 43.791 164.704 43.8909 164.182 43.8855C162.35 43.8855 160.982 42.655 160.982 40.8181C161 39.0187 162.285 37.693 164.395 37.693ZM165 41.5975C165.265 41.5975 165.52 41.4918 165.707 41.3038C165.895 41.1159 166 40.8609 166 40.595C166 40.3292 165.895 40.0742 165.707 39.8862C165.52 39.6982 165.265 39.5926 165 39.5926C164.87 39.5903 164.742 39.6137 164.621 39.6615C164.5 39.7093 164.39 39.7806 164.297 39.8712C164.204 39.9619 164.13 40.0701 164.079 40.1895C164.028 40.309 164.001 40.4375 164 40.5675C163.996 40.7014 164.019 40.8347 164.068 40.9595C164.117 41.0844 164.19 41.1981 164.283 41.2942C164.376 41.3902 164.488 41.4665 164.611 41.5186C164.734 41.5707 164.866 41.5975 165 41.5975Z" fill="#8E4AC9"/>
<path d="M175.5 34.1141C176.166 34.1229 176.822 34.2742 177.425 34.5577V27.8163C177.429 27.7005 177.476 27.5905 177.558 27.5086C177.64 27.4267 177.75 27.379 177.865 27.3752H180.438C180.553 27.379 180.663 27.4266 180.745 27.5084C180.828 27.5903 180.876 27.7003 180.88 27.8163V43.2012C180.876 43.3172 180.828 43.4273 180.745 43.5091C180.663 43.591 180.553 43.6386 180.438 43.6423H179.35C179.118 43.6423 178.955 43.4343 178.863 43.1787L178.585 42.4118C178.207 42.8709 177.733 43.2403 177.195 43.4934C176.658 43.7464 176.071 43.8769 175.478 43.8754C172.858 43.8754 170.888 41.6675 170.888 38.996C170.888 35.718 173.02 34.1141 175.5 34.1141ZM175.94 40.8806C176.188 40.8824 176.434 40.834 176.663 40.7384C176.891 40.6427 177.099 40.5018 177.272 40.3239C177.445 40.1461 177.581 39.935 177.671 39.7034C177.76 39.4718 177.803 39.2244 177.795 38.976C177.8 38.7303 177.756 38.486 177.665 38.2579C177.574 38.0298 177.437 37.8227 177.264 37.6489C177.091 37.4751 176.884 37.3383 176.656 37.2468C176.429 37.1553 176.185 37.111 175.94 37.1164C175.694 37.1107 175.449 37.1547 175.22 37.2458C174.991 37.337 174.783 37.4734 174.608 37.6469C174.433 37.8204 174.294 38.0275 174.2 38.2558C174.107 38.4842 174.06 38.7291 174.063 38.976C174.058 39.2253 174.103 39.4732 174.195 39.7047C174.288 39.9363 174.426 40.147 174.601 40.3243C174.776 40.5016 174.984 40.642 175.214 40.7371C175.444 40.8322 175.691 40.8801 175.94 40.8781V40.8806Z" fill="#8E4AC9"/>
<path d="M183.25 29.6984C183.248 29.4558 183.294 29.2152 183.386 28.9905C183.477 28.7657 183.612 28.5613 183.782 28.3887C183.952 28.2162 184.155 28.0791 184.378 27.9852C184.601 27.8913 184.84 27.8424 185.082 27.8414C185.571 27.8414 186.04 28.036 186.385 28.3824C186.731 28.7288 186.925 29.1986 186.925 29.6884C186.925 30.1783 186.731 30.6481 186.385 30.9944C186.04 31.3408 185.571 31.5354 185.082 31.5354C184.841 31.5367 184.603 31.4901 184.38 31.3983C184.157 31.3064 183.954 31.1712 183.784 31.0003C183.613 30.8295 183.478 30.6265 183.387 30.403C183.295 30.1795 183.249 29.9401 183.25 29.6984V29.6984ZM183.39 34.7883C183.39 34.6713 183.436 34.5592 183.519 34.4764C183.601 34.3937 183.713 34.3472 183.83 34.3472H186.38C186.497 34.3472 186.609 34.3937 186.691 34.4764C186.774 34.5592 186.82 34.6713 186.82 34.7883V43.2013C186.816 43.3171 186.769 43.4271 186.687 43.509C186.605 43.5909 186.495 43.6386 186.38 43.6424H183.83C183.714 43.6386 183.605 43.5909 183.523 43.509C183.441 43.4271 183.394 43.3171 183.39 43.2013V34.7883Z" fill="#8E4AC9"/>
<path d="M189.318 34.7882C189.318 34.6713 189.364 34.5591 189.446 34.4763C189.529 34.3936 189.641 34.3472 189.758 34.3472H190.848C190.935 34.3538 191.019 34.3829 191.092 34.4316C191.166 34.4803 191.225 34.547 191.265 34.6253L191.635 35.5551C192.048 35.098 192.553 34.7333 193.117 34.485C193.68 34.2367 194.29 34.1103 194.905 34.1141C197.78 34.1141 199.31 36.322 199.31 38.9734V43.2012C199.306 43.317 199.259 43.427 199.177 43.5089C199.095 43.5908 198.986 43.6385 198.87 43.6423H196.387C196.271 43.6423 196.159 43.5958 196.076 43.5131C195.994 43.4304 195.947 43.3182 195.947 43.2012V38.8556C195.947 37.9259 195.415 37.1014 194.37 37.1014C193.445 37.1014 192.62 37.7755 192.62 38.7278V43.1887C192.627 43.2464 192.621 43.3049 192.603 43.3602C192.585 43.4154 192.555 43.4659 192.515 43.5081C192.475 43.5503 192.427 43.5831 192.372 43.6041C192.318 43.6251 192.26 43.6339 192.202 43.6297H189.75C189.634 43.626 189.525 43.5783 189.443 43.4964C189.361 43.4145 189.314 43.3044 189.31 43.1887L189.318 34.7882Z" fill="#8E4AC9"/>
<path d="M202.415 40.2516C202.415 40.2516 201.75 39.5524 201.75 38.1389C201.77 37.0664 202.209 36.0445 202.972 35.2925C203.736 34.5406 204.762 34.1184 205.833 34.1166H210.212C210.271 34.1149 210.329 34.1252 210.384 34.1469C210.438 34.1686 210.487 34.2013 210.528 34.2428C210.57 34.2844 210.602 34.334 210.623 34.3886C210.645 34.4432 210.655 34.5016 210.652 34.5602V35.5125C210.649 35.5944 210.624 35.674 210.58 35.7431C210.537 35.8122 210.475 35.8684 210.402 35.906L209.045 36.3847C209.045 36.3847 209.928 37.1064 209.928 38.6401C209.928 40.3368 208.375 42.1487 205.928 42.1487H204.25C203.75 42.1487 203.485 42.3993 203.485 42.7752C203.485 43.2188 203.88 43.4042 204.235 43.4042H207C209.178 43.4042 211 44.7274 211 46.7975C211 49.0279 209.445 50.8398 205.783 50.8398C202.19 50.8398 200.938 49.1432 200.938 47.6796C200.938 46.2862 202.098 45.587 202.35 45.4492V45.379C201.82 45.1913 201.363 44.8413 201.042 44.3785C200.722 43.9156 200.555 43.3635 200.565 42.8003C200.56 40.9708 202.415 40.2516 202.415 40.2516ZM205.777 48.1282C206.937 48.1282 207.447 47.6646 207.447 47.0356C207.447 46.5494 207.03 46.0607 205.777 46.0607C204.942 46.0607 204.107 46.3639 204.107 47.0356C204.107 47.7072 204.665 48.1282 205.777 48.1282ZM205.917 39.5524C206.237 39.5524 206.544 39.4251 206.77 39.1986C206.996 38.972 207.122 38.6648 207.122 38.3444C207.122 38.0241 206.996 37.7168 206.77 37.4903C206.544 37.2638 206.237 37.1365 205.917 37.1365C205.759 37.1365 205.603 37.1677 205.456 37.2284C205.31 37.2891 205.177 37.3781 205.065 37.4903C204.954 37.6025 204.865 37.7356 204.804 37.8822C204.744 38.0287 204.712 38.1858 204.712 38.3444C204.712 38.5031 204.744 38.6601 204.804 38.8067C204.865 38.9532 204.954 39.0864 205.065 39.1986C205.177 39.3107 205.31 39.3997 205.456 39.4604C205.603 39.5211 205.759 39.5524 205.917 39.5524V39.5524Z" fill="#8E4AC9"/>
<path d="M143.533 53.3812C143.533 53.2642 143.579 53.152 143.661 53.0693C143.744 52.9866 143.856 52.9401 143.973 52.9401H145.063C145.152 52.935 145.242 52.9595 145.316 53.0096C145.391 53.0598 145.448 53.133 145.477 53.2183L145.895 54.2408C146.36 53.5666 147.218 52.707 148.423 52.707C149.698 52.707 150.602 53.1707 150.277 53.7095L149.143 55.569C149.101 55.661 149.027 55.7337 148.934 55.7724C148.841 55.811 148.737 55.8127 148.643 55.777C148.464 55.7077 148.276 55.6687 148.085 55.6617C147.39 55.6617 146.857 56.1955 146.857 56.9849V61.7966C146.857 62.0748 146.717 62.2377 146.357 62.2377H143.992C143.877 62.2339 143.767 62.1863 143.686 62.1044C143.604 62.0224 143.556 61.9124 143.553 61.7966L143.533 53.3812Z" fill="#8E4AC9"/>
<path d="M151.32 53.381C151.32 53.264 151.366 53.1519 151.449 53.0691C151.531 52.9864 151.643 52.9399 151.76 52.9399H154.25C154.367 52.9399 154.479 52.9864 154.561 53.0691C154.644 53.1519 154.69 53.264 154.69 53.381V57.6865C154.69 58.6413 155.223 59.4783 156.173 59.4783C157.078 59.4783 157.565 58.6163 157.565 57.8268V53.381C157.565 53.0101 157.815 52.9399 158.053 52.9399H160.415C160.473 52.9396 160.53 52.9508 160.584 52.9728C160.638 52.9948 160.687 53.0273 160.728 53.0682C160.769 53.1092 160.802 53.158 160.824 53.2117C160.846 53.2653 160.857 53.3229 160.857 53.381V61.794C160.853 61.91 160.805 62.02 160.723 62.1019C160.641 62.1837 160.531 62.2313 160.415 62.2351H159.327C159.23 62.2299 159.136 62.1964 159.058 62.1385C158.979 62.0806 158.919 62.0009 158.885 61.9093L158.538 61.0497C157.935 61.6311 157.193 62.4681 155.408 62.4681C152.658 62.4681 151.327 60.2377 151.327 57.5863L151.32 53.381Z" fill="#8E4AC9"/>
<path d="M162.865 61.2127L163.678 59.6088C163.723 59.5246 163.798 59.4595 163.887 59.4255C163.976 59.3915 164.075 59.3907 164.165 59.4234C164.165 59.4234 165.253 60.0273 166.25 60.0273C166.307 60.0319 166.364 60.0244 166.418 60.0053C166.472 59.9862 166.522 59.956 166.563 59.9165C166.605 59.877 166.637 59.8292 166.659 59.7762C166.681 59.7232 166.692 59.6662 166.69 59.6088C166.69 59.3783 166.553 59.0525 165.37 58.6339C163.56 58.0049 162.773 56.9599 162.773 55.5189C162.773 53.9626 163.885 52.707 166.39 52.707C167.85 52.707 168.963 53.103 169.473 53.4263C169.683 53.5666 169.845 53.7771 169.705 54.0077L168.848 55.589C168.793 55.6635 168.716 55.7178 168.628 55.7432C168.54 55.7686 168.445 55.7638 168.36 55.7294C168.36 55.7294 167.295 55.1931 166.39 55.1931C166.088 55.1931 165.89 55.2632 165.89 55.5189C165.89 55.7745 166.14 55.985 166.933 56.2707C168.81 56.9198 170.11 57.6641 170.11 59.5286C170.11 61.1551 168.81 62.4808 166.19 62.4808C164.66 62.4808 163.503 62.0848 163.038 61.7139C162.865 61.5611 162.75 61.4232 162.865 61.2127Z" fill="#8E4AC9"/>
<path d="M171.953 46.4091C171.957 46.2931 172.005 46.183 172.087 46.1012C172.169 46.0193 172.279 45.9717 172.395 45.968H174.968C175.083 45.9718 175.193 46.0195 175.274 46.1014C175.356 46.1833 175.404 46.2933 175.408 46.4091V53.2407C176.077 52.9005 176.815 52.7179 177.565 52.7069C180.485 52.7069 181.993 55.0075 181.993 57.5863V61.794C181.989 61.9098 181.941 62.0198 181.859 62.1017C181.778 62.1836 181.668 62.2313 181.553 62.2351H179.093C178.976 62.2351 178.864 62.1886 178.781 62.1059C178.699 62.0232 178.653 61.911 178.653 61.794V57.5336C178.653 56.5112 177.98 55.6967 176.96 55.6967C176.21 55.6967 175.408 56.1152 175.408 57.5336V61.794C175.408 62.0947 175.293 62.2351 174.908 62.2351H172.408C172.292 62.2314 172.182 62.1838 172.1 62.1019C172.017 62.0201 171.969 61.91 171.965 61.794L171.953 46.4091Z" fill="#8E4AC9"/>
</svg>
