<svg width="17" height="17" viewBox="0 0 17 17" fill="none" xmlns="http://www.w3.org/2000/svg">
<path d="M6.01763 6.80009C6.01763 8.17072 7.12927 9.28243 8.49996 9.28243C9.87065 9.28243 10.9823 8.17078 10.9823 6.80009C10.9823 5.4294 9.87065 4.31775 8.49996 4.31775C7.12927 4.31775 6.01763 5.4294 6.01763 6.80009Z" fill="#8E4AC9"/>
<path d="M8.49995 0.425049C12.9538 0.425049 16.575 4.04622 16.575 8.50005C16.575 12.9539 12.9538 16.575 8.49995 16.575C4.04612 16.575 0.42495 12.9539 0.42495 8.50005C0.42495 4.04622 4.04612 0.425049 8.49995 0.425049ZM4.19878 13.3624C4.96378 11.3729 6.59612 10.0474 8.49995 10.0474C10.4038 10.0474 12.0361 11.3735 12.8011 13.3624C14.1438 12.1724 14.9938 10.4386 14.9938 8.50005C14.9938 4.91271 12.0864 2.00622 8.49995 2.00622C4.91261 2.00622 2.00612 4.91288 2.00612 8.50005C2.00612 10.4377 2.85612 12.1724 4.19878 13.3624Z" fill="#8E4AC9"/>
</svg>
